<?xml version="1.0" encoding="utf-8"?>
<!-- Generator: Adobe Illustrator 24.3.0, SVG Export Plug-In . SVG Version: 6.00 Build 0)  -->
<svg version="1.1" id="Layer_1" xmlns="http://www.w3.org/2000/svg" xmlns:xlink="http://www.w3.org/1999/xlink" x="0px" y="0px"
	 viewBox="0 0 150 38" style="enable-background:new 0 0 150 38;" xml:space="preserve">
<style type="text/css">
	.st0{fill:#FFFFFF;}
</style>
<g>
	<polygon class="st0" points="28.3,27.7 32.4,27.7 32.4,21.4 32.4,18.1 32.4,13.6 41.5,13.6 41.5,10.3 28.3,10.3 	"/>
	<path class="st0" d="M127.9,11.4c-1.4-0.7-3.1-1.1-5-1.1h-7.9v17.4h7.9c1.9,0,3.6-0.4,5-1.1c1.4-0.7,2.6-1.7,3.4-3
		c0.8-1.3,1.2-2.8,1.2-4.6s-0.4-3.3-1.2-4.6C130.5,13.1,129.4,12.1,127.9,11.4 M127.7,21.9c-0.5,0.8-1.1,1.5-2,1.9
		c-0.8,0.4-1.9,0.7-3,0.7h-3.6V13.6h3.6c1.2,0,2.2,0.2,3,0.7s1.5,1.1,2,1.9c0.5,0.8,0.7,1.8,0.7,2.9C128.4,20.1,128.2,21,127.7,21.9
		"/>
	<rect x="0.2" y="10.4" class="st0" width="4" height="17.3"/>
	<polygon class="st0" points="20.2,20.9 11.6,10.3 8.3,10.3 8.3,27.7 12.3,27.7 12.3,17.2 20.9,27.7 24.2,27.7 24.2,10.3 20.2,10.3 
			"/>
	<path class="st0" d="M76,18.9c-0.6-0.4-1.2-0.6-2-0.9s-1.4-0.4-2.2-0.6c-0.7-0.2-1.4-0.3-2-0.5c-0.6-0.2-1.1-0.4-1.4-0.7
		c-0.4-0.3-0.6-0.6-0.6-1.1c0-0.4,0.1-0.7,0.3-1s0.6-0.5,1.1-0.7c0.5-0.2,1.1-0.3,1.9-0.3c0.8,0,1.6,0.1,2.4,0.3
		c0.8,0.2,1.6,0.6,2.4,1l1.3-3c-0.8-0.5-1.7-0.9-2.8-1.1S72.3,10,71.2,10c-1.6,0-3,0.2-4.1,0.7c-1.1,0.5-1.9,1.1-2.4,2
		s-0.8,1.7-0.8,2.7c0,0.9,0.2,1.7,0.5,2.3c0.4,0.6,0.8,1.1,1.4,1.5c0.6,0.4,1.3,0.7,2,0.9s1.4,0.4,2.1,0.6s1.4,0.3,2,0.5
		c0.6,0.2,1.1,0.4,1.4,0.7s0.6,0.6,0.6,1.1c0,0.4-0.1,0.7-0.3,1c-0.2,0.3-0.6,0.5-1.1,0.7c-0.5,0.2-1.1,0.2-1.9,0.2
		c-1,0-2.1-0.2-3.1-0.5c-1-0.3-1.9-0.8-2.6-1.3l-1.4,3c0.8,0.6,1.8,1.1,3.1,1.5s2.6,0.6,4,0.6c1.6,0,3-0.2,4.1-0.7
		c1.1-0.5,1.9-1.1,2.4-2c0.5-0.8,0.8-1.7,0.8-2.7c0-0.9-0.2-1.6-0.6-2.2C77.1,19.8,76.6,19.3,76,18.9"/>
	<polygon class="st0" points="78.5,13.6 84.1,13.6 84.1,27.7 88.1,27.7 88.1,13.6 93.7,13.6 93.7,10.3 78.5,10.3 	"/>
	<path class="st0" d="M107.1,19.9c0,1.6-0.3,2.8-1,3.6s-1.6,1.1-2.8,1.1c-1.2,0-2.2-0.4-2.8-1.1c-0.7-0.7-1-1.9-1-3.6v-9.6h-4V20
		c0,2.6,0.7,4.5,2.1,5.9c1.4,1.4,3.3,2.1,5.8,2.1c2.4,0,4.4-0.7,5.8-2.1c1.4-1.4,2.1-3.3,2.1-5.9v-9.7h-3.9L107.1,19.9L107.1,19.9z"
		/>
	<polygon class="st0" points="145.9,10.3 141.3,18 136.6,10.3 132.4,10.3 139.1,21.5 139.1,27.7 143.1,27.7 143.1,21.5 149.8,10.3 	
		"/>
	<path class="st0" d="M33.9,19c0-0.8,0.3-1.5,1-2s1.3-0.8,2.1-0.8s1.4,0.3,2,0.8c0.6,0.5,0.9,1.2,0.9,2s-0.3,1.5-0.9,2
		c-0.6,0.5-1.3,0.8-2,0.8s-1.4-0.3-2.1-0.8C34.3,20.5,33.9,19.8,33.9,19"/>
	<path class="st0" d="M59.9,19.2c-0.4-1.3-1.1-2.5-2.1-3.4c-0.1-0.1-0.2-0.2-0.3-0.3c0.1-0.5,0.3-1,0.4-1.5c0-0.1,0-0.1-0.1-0.2
		c-0.4-0.3-0.7-0.6-1.1-0.8c-2-1.2-4.1-1.7-6.4-1.3c-0.1,0-0.1,0.1-0.2,0.1c-0.1,0.3-0.2,0.5-0.2,0.8l-0.2,0.8c0,0-0.1,0-0.1,0
		c-0.3,0.1-0.6,0.2-0.9,0.3c0.1-0.2,0.1-0.4,0.2-0.6c0,0,0.1,0,0.1,0c0.3-0.1,0.3-0.3,0.1-0.5c0,0-0.1-0.1-0.1-0.1c0,0,0-0.1,0-0.1
		c0.1-0.2,0.1-0.5,0.2-0.8c0.2,0.2,0.5,0.4,0.7,0.5c0-0.2,0.1-0.3,0.1-0.5c0-0.1,0.1-0.1,0.2-0.1c1.1-0.2,2.1-0.3,3.2-0.2
		c1.9,0.3,3.5,1.1,4.8,2.4c0,0,0.1,0.1,0,0.2c0,0.2-0.1,0.3-0.1,0.5c0.1,0,0.1,0,0.2,0c1-0.1,1.9-0.2,2.8-0.4c0.1,0,0.2-0.1,0.3-0.1
		c-0.1-0.1-0.1-0.2-0.2-0.3c-0.8-0.7-1.7-1.3-2.5-2c-1-0.8-2.1-1.6-3.2-2.5C55.3,9.1,55,9,54.6,9c-2.4,0.3-4.8,0.6-7.1,0.9
		c-0.1,0-0.2,0.1-0.3,0.1c0.1,0.1,0.1,0.2,0.2,0.3c0.4,0.4,0.9,0.7,1.3,1.1c0.1,0.1,0.1,0.2,0.1,0.3c-0.1,0.2-0.1,0.4-0.2,0.6
		c0,0.1-0.1,0.1-0.2,0.1c-0.2,0-0.3,0-0.4,0.2c-0.1,0.2,0,0.3,0.2,0.4c0,0,0,0,0,0c0,0.3-0.3,0.6-0.1,0.9c0,0,0,0,0,0.1
		c-0.8,0.3-1.5,0.8-2.1,1.4c-1,0.9-1.7,2.1-2.1,3.6c-0.4,1.4-0.4,2.8,0,4.1c0.4,1.3,1.1,2.5,2.1,3.4s2.3,1.7,3.8,2.1
		c1.5,0.4,3,0.5,4.4,0.2s2.6-0.9,3.6-1.9c1-0.9,1.7-2.1,2.1-3.6C60.2,21.9,60.2,20.5,59.9,19.2 M54.5,24.2c-0.5,0.5-1.1,0.9-1.7,1
		s-1.3,0.1-2-0.1c-0.7-0.2-1.2-0.5-1.7-1s-0.8-1-1-1.8S48,21,48.2,20.1c0.2-0.8,0.6-1.5,1.1-2c0.5-0.5,1.1-0.8,1.7-1
		c0.6-0.2,1.3-0.1,2,0c0.7,0.2,1.3,0.5,1.7,1c0.5,0.5,0.8,1,0.9,1.7s0.1,1.5-0.1,2.3C55.3,23,55,23.7,54.5,24.2"/>
</g>
</svg>
